Damien: Omen II (1978)

107 min  -  Drama | Horror | Thriller   -  9 June 1978 (USA)

Ratings: 6.1/10

Damien the Antichrist, now age 13, finally learns of his destiny under the guidance of an unholy disciple of Satan. Meanwhile dark mystical forces begin to eliminate all those who suspect the child's true identity. 

Stars:
William Holden, Lee Grant and Jonathan Scott-Taylor 


Format                         : AVI
Format/Info                    : Audio Video Interleave
File size                      : 689 MiB
Duration                       : 1h 42mn
Overall bit rate               : 940 Kbps

Video
ID                             : 0
Format                         : MPEG-4 Visual
Format settings, BVOP          : Yes
Format settings, QPel          : No
Format settings, GMC           : No warppoints
Format settings, Matrix        : Default (H.263)
Codec ID                       : DX50
Codec ID/Hint                  : DivX 5
Duration                       : 1h 42mn
Bit rate                       : 799 Kbps
Width                          : 640 pixels
Height                         : 368 pixels
Display aspect ratio           : 16:9
Frame rate                     : 25.000 fps
Color space                    : YUV
Chroma subsampling             : 4:2:0
Bit depth                      : 8 bits
Scan type                      : Progressive
Compression mode               : Lossy
Bits/(Pixel*Frame)             : 0.136
Stream size                    : 586 MiB (85%)
Title                          : NeoVideo92CF
Writing library                : DivX 5.0.2 (UTC 2002-05-16)

Audio
ID                             : 1
Format                         : MPEG Audio
Format version                 : Version 1
Format profile                 : Layer 3
Mode                           : Joint stereo
Mode extension                 : MS Stereo
Codec ID                       : 55
Codec ID/Hint                  : MP3
Duration                       : 1h 42mn
Bit rate mode                  : Constant
Bit rate                       : 128 Kbps
Channel(s)                     : 2 channels
Sampling rate                  : 48.0 KHz
Compression mode               : Lossy
Stream size                    : 93.8 MiB (14%)
Alignment                      : Split accross interleaves
Interleave, duration           : 24 ms (0.60 video frame)
Title                          : NeoSound92CF0

